<?xml version="1.0" encoding="utf-8"?>
<!-- Generator: Adobe Illustrator 21.0.2, SVG Export Plug-In . SVG Version: 6.00 Build 0)  -->
<svg version="1.1" id="레이어_1" xmlns="http://www.w3.org/2000/svg" xmlns:xlink="http://www.w3.org/1999/xlink" x="0px"
	 y="0px" viewBox="0 0 296 98" style="enable-background:new 0 0 296 98;" xml:space="preserve">
<g>
	<path d="M263.7,31.4c0.5,0.2,1,0.4,1.5,0.4c0.5,0,1.1-0.1,1.5-0.4c0.7-0.4,1.3-1,1.8-1.8c0.4-0.8,0.6-1.6,0.5-2.5
		c-0.1-1-0.7-1.9-1.8-2.6c-1-0.5-2.1-0.5-3,0c-0.8,0.4-1.4,1-1.8,1.8c-0.4,0.8-0.6,1.6-0.5,2.5C262,30,262.7,30.9,263.7,31.4z"/>
	<path d="M267.7,49.6c-0.7-0.6-1.4-0.7-1.8-0.7c-0.6,0-1.4,0.2-2.2,1.1c-0.4,0.5-0.7,0.9-1.1,1.3c-1.1,1.3-2.2,2.6-3.3,3.8
		c-0.7,0.7-1.3,1.3-2,2c-0.6,0.6-1.2,1.3-1.9,1.8c-0.3,0.2-0.6,0.5-0.9,0.7c0,0,0-0.1,0-0.1c0.2-0.9,0.5-1.7,0.8-2.5
		c0.3-0.8,0.6-1.6,0.9-2.4c0.8-2,1.7-3.9,2.6-5.8c0.9-1.9,1.9-3.8,2.8-5.5c0.2-0.2,0.3-0.5,0.4-0.7c0.1-0.3,0.2-0.5,0.3-0.7
		c0.3-0.8,0.3-1.7-0.2-2.5c-0.4-0.5-0.9-1-1.5-1.2c-0.1-0.1-0.3-0.1-0.4-0.1c-0.1,0-0.3,0-0.4,0c-0.9,0-1.8,0.5-2.3,1.2l-7.2,8.3
		l-5.4,5.8c-0.6,0.7-1.2,1.3-1.8,2c-0.9,0.9-1.8,1.8-2.6,2.6c-0.7,0.6-1.5,1.3-2.4,1.9c-0.7,0.5-1.4,0.8-2.2,1c-0.2,0-0.3,0.1-0.6,0
		c0-0.1,0-0.3,0-0.5c0-0.7,0.1-1.4,0.3-2.1c0.2-0.8,0.4-1.5,0.7-2.3c0.3-1.2,0.7-2.3,1.1-3.3c0.4-1.1,0.9-2.2,1.3-3.3
		c1.1-2.7,2.2-5.2,3.3-7.8c1.1-2.5,2.3-5.2,3.3-7.8c0.7-1.4,1.3-2.9,1.9-4.3c0.5-1.4,1.1-2.9,1.6-4.5c0.3-1.2,0.6-2.5,0.8-3.7
		c0.2-1.4,0.3-2.8,0-4.1c-0.1-1-0.5-2-1-2.9c-0.6-1-1.3-1.7-2.4-2.3c-1.3-0.7-2.8-1-4.4-0.8c-1.4,0.2-2.7,0.5-3.8,1.1
		c-3,1.2-5.6,3-7.9,5.4c-0.6,0.6-1.2,1.3-1.8,2c0-0.6-0.1-1.2-0.2-1.8c-0.3-1.5-0.9-2.9-1.8-4.1c-1-1.3-2.6-2.1-4.5-2.4
		c-1.6-0.2-3.1-0.1-4.6,0.4c-1.4,0.4-2.6,1.1-3.9,1.9c-1.2,0.8-2.3,1.6-3.3,2.6c-0.3,0.3-0.6,0.5-0.8,0.8c-0.1-1.1-0.5-2.1-1.1-2.9
		c-0.8-1-1.8-1.7-3.1-2.1c-1.4-0.5-3-0.7-4.6-0.5c-1.4,0.2-2.8,0.5-4.1,0.9c-1.1,0.4-2.2,0.9-3.4,1.6c-1.3,0.8-2.3,1.7-3,2.7
		c-0.4,0.5-0.8,1.2-1.1,2.1c-0.5,1.5,0.1,3,1.6,3.5c0.7,0.3,1.5,0.3,2.1,0c0.6-0.2,1-0.7,1.4-1.2c0.1-0.2,0.3-0.5,0.4-0.9
		c0,0,0.8-1.9,5.7-3.1c0,0,0,0,0,0c0,0,0.1,0,0.3,0c0.3,0,0.7-0.1,1.2-0.1l0.3,0c0.1,0,0.1,0,0.1,0c0.1,0,0.1,0,0.2,0
		c0.8,0.1,1.6,0.4,1.3,1.3c0,0.2-0.1,0.4-0.2,0.6c-0.3,0.8-0.6,1.5-1,2.2c-1.8,4.5-3.6,9-5.4,13.4c-0.3,0.7-0.5,1.2-0.5,1.2
		c-5.5,10.8-10.3,16.9-14,20.3c-0.6,0.5-1.1,1-1.7,1.4c-0.4,0.3-0.7,0.5-1.1,0.8c-2.8,1.9-4.7,2.1-5.4,2c-0.1,0-0.2,0-0.3,0
		c-0.3,0-0.6-0.1-1-0.4c-0.1-0.2-0.2-0.3-0.2-0.5c-0.1-0.5-0.2-0.9-0.2-1.1c0-1,0.1-2.1,0.4-3.3l0.8-0.2c0.3-0.1,0.6-0.2,1-0.3
		c0.4-0.1,0.8-0.2,1.2-0.3c1.2-0.4,2.3-0.8,3.4-1.3c1.2-0.5,2.3-1.1,3.5-1.8c0.6-0.4,1.3-1,2-1.5c0.7-0.6,1.4-1.4,1.9-2.1
		c0.5-0.8,0.9-1.6,1.3-2.5c0.3-1.1,0.4-2.2,0-3.5c-0.5-1.6-1.7-2.7-3.3-3.3c-1.3-0.4-2.6-0.5-4-0.3c-1.2,0.2-2.3,0.7-3.3,1.3
		c-0.9,0.6-1.8,1.3-2.6,2c-1.9,1.7-3.5,3.7-4.7,5.9c-1.9,3.3-3.4,5.3-4.3,6.4c-0.6,0.7-1.2,1.3-1.8,2c-0.9,0.9-1.8,1.8-2.6,2.6
		c-0.7,0.6-1.5,1.3-2.4,1.9c-0.7,0.5-1.4,0.8-2.2,1c-0.2,0-0.3,0.1-0.6,0c0-0.1,0-0.3,0-0.5c0-0.7,0.1-1.4,0.3-2.1
		c0.2-0.8,0.4-1.5,0.7-2.3c0.3-1.2,0.7-2.3,1.1-3.3c0.4-1.1,0.9-2.2,1.3-3.3c1.1-2.7,2.2-5.2,3.3-7.8c1.1-2.5,2.3-5.2,3.3-7.8
		c0.7-1.4,1.3-2.9,1.9-4.3c0.5-1.4,1-2.9,1.6-4.5c0.3-1.2,0.6-2.5,0.8-3.7c0.2-1.4,0.3-2.8,0-4.1c-0.1-1-0.5-2-1-2.9
		c-0.5-1-1.3-1.7-2.4-2.3c-1.3-0.7-2.8-1-4.4-0.8c-1.4,0.2-2.7,0.5-3.8,1.1c-3,1.2-5.6,3-7.9,5.4c-0.6,0.6-1.2,1.3-1.8,2
		c0-0.6-0.1-1.2-0.2-1.8c-0.3-1.5-0.9-2.9-1.8-4.1c-1-1.3-2.6-2.1-4.5-2.4c-1.6-0.2-3.1-0.1-4.6,0.4c-1.4,0.4-2.6,1.1-3.9,1.9
		c-1.2,0.8-2.3,1.6-3.3,2.6c-0.3,0.3-0.6,0.5-0.8,0.8c-0.1-1.1-0.5-2.1-1.1-2.9c-0.8-1-1.8-1.7-3.1-2.1c-1.4-0.5-3-0.7-4.6-0.5
		c-1.4,0.2-2.8,0.5-4.1,0.9c-1.1,0.4-2.2,0.9-3.4,1.6c-1.3,0.8-2.3,1.7-3,2.7c-0.4,0.5-0.8,1.2-1.1,2.1c-0.5,1.5,0.1,3,1.6,3.5
		c0.7,0.3,1.5,0.3,2.1,0c0.6-0.2,1-0.7,1.4-1.2c0.1-0.2,0.3-0.5,0.4-0.9c0,0,0.8-1.9,5.7-3.1c0,0,0,0,0,0c0,0,0.1,0,0.3,0
		c0.3,0,0.7-0.1,1.2-0.1l0.3,0c0.1,0,0.1,0,0.1,0c0.1,0,0.1,0,0.2,0c0.8,0.1,1.6,0.4,1.3,1.3c0,0.2-0.1,0.4-0.2,0.6
		c-0.3,0.8-0.6,1.5-1,2.2c-0.7,1.9-1.5,3.7-2.2,5.6c-0.1,0.1-0.2,0.3-0.3,0.5c-0.1,0.2-0.2,0.5-0.3,0.8c-1.2,2.7-3.3,7.7-3.3,7.7
		c-5.5,10.8-10.3,16.9-14,20.3c-0.6,0.5-1.1,1-1.7,1.4c-0.4,0.3-0.7,0.5-1.1,0.8c-2.8,1.9-4.7,2.1-5.4,2c-0.1,0-0.2,0-0.3,0
		c-0.3,0-0.6-0.1-1-0.4c-0.1-0.2-0.2-0.3-0.2-0.5c-0.1-0.5-0.2-0.9-0.2-1.1c0-1,0.1-2.1,0.4-3.3l0.8-0.2c0.3-0.1,0.6-0.2,1-0.3
		c0.4-0.1,0.8-0.2,1.2-0.3c1.2-0.4,2.3-0.8,3.4-1.3c1.2-0.5,2.3-1.1,3.5-1.8c0.6-0.4,1.3-1,2-1.5c0.7-0.6,1.4-1.4,1.9-2.1
		c0.5-0.8,0.9-1.6,1.3-2.5c0.3-1.1,0.4-2.2,0-3.5c-0.5-1.6-1.7-2.7-3.3-3.3c-1.3-0.4-2.6-0.5-4-0.3c-1.2,0.2-2.3,0.7-3.3,1.3
		c-0.9,0.6-1.8,1.3-2.6,2c-1.9,1.7-3.5,3.7-4.7,5.9c-1.9,3.3-3.4,5.3-4.3,6.4c-0.6,0.7-1.2,1.3-1.8,2c-0.9,0.9-1.8,1.8-2.6,2.6
		c-0.8,0.6-1.5,1.3-2.4,1.9c-0.7,0.5-1.4,0.8-2.2,1c-0.2,0-0.3,0.1-0.6,0c0-0.1,0-0.3,0-0.5c0-0.7,0.1-1.4,0.3-2.1
		c0.2-0.8,0.4-1.5,0.7-2.3c0.3-1.2,0.7-2.3,1.1-3.3c0.4-1.1,0.9-2.2,1.3-3.3c1.1-2.7,2.2-5.2,3.3-7.8c1.1-2.5,2.3-5.2,3.3-7.8
		c0.7-1.4,1.3-2.9,1.8-4.3c0.5-1.4,1.1-2.9,1.6-4.5c0.3-1.2,0.6-2.5,0.8-3.7c0.2-1.4,0.3-2.8,0-4.1c-0.1-1-0.5-2-1-2.9
		c-0.5-1-1.3-1.7-2.4-2.3c-1.3-0.7-2.8-1-4.4-0.8c-1.4,0.2-2.7,0.5-3.8,1.1c-3,1.2-5.6,3-7.9,5.4c-0.6,0.6-1.2,1.3-1.8,2
		c0-0.6-0.1-1.2-0.2-1.8c-0.3-1.5-0.9-2.9-1.8-4.1c-1-1.3-2.6-2.1-4.5-2.4c-1.6-0.2-3.1-0.1-4.6,0.4c-1.4,0.4-2.6,1.1-3.9,1.9
		c-1.2,0.8-2.3,1.6-3.3,2.6c-0.3,0.3-0.6,0.5-0.8,0.8c-0.1-1.1-0.5-2.1-1.1-2.9c-0.8-1-1.8-1.7-3.1-2.1c-1.4-0.5-3-0.7-4.6-0.5
		c-1.4,0.2-2.8,0.5-4.1,0.9c-1.1,0.4-2.2,0.9-3.4,1.6c-1.3,0.8-2.3,1.7-3,2.7c-0.4,0.5-0.8,1.2-1.1,2.1c-0.5,1.5,0.1,3,1.6,3.5
		c0.7,0.3,1.5,0.3,2.1,0c0.6-0.2,1-0.7,1.4-1.2c0.1-0.2,0.3-0.5,0.4-0.9c0,0,0.8-1.9,5.7-3.1c0,0,0,0,0,0c0,0,0.1,0,0.3,0
		c0.3,0,0.7-0.1,1.2-0.1l0.3,0c0.1,0,0.1,0,0.1,0c0.1,0,0.1,0,0.2,0c0.8,0.1,1.6,0.4,1.3,1.3c0,0.2-0.1,0.4-0.2,0.6
		c-0.3,0.8-0.6,1.5-1,2.2c-1.8,4.5-3.6,9-5.4,13.4c-1.8,4.4-3.7,8.8-5.6,13.3l-5.9,14.2c-0.1,0.3-0.3,0.6-0.4,1
		c-0.4,1-0.3,2.1,0.4,2.9c0.6,0.7,1.4,1.1,2.2,1.1c0.1,0,0.5,0,0.6-0.1c1-0.2,1.7-0.9,2-1.8l0.2-0.6c0.6-1.3,1.2-2.6,1.7-3.9
		c0.5-1.3,1.1-2.6,1.6-3.9c1.4-3.5,2.9-7,4.3-10.5c1.4-3.5,3-6.9,4.7-10.1c1.3-2.4,2.6-4.7,4-6.8c1.4-2.2,3-4.3,4.6-6.3
		c1.2-1.3,2.6-2.7,4.1-4c0.2-0.1,0.3-0.2,0.5-0.4c1.6-1.1,6.7-4,6.7,4c-0.1,0.4-0.1,0.7-0.2,1.1c-0.5,2.5-1.2,5-2.2,7.2
		c-1.1,2.4-2.2,4.9-3.2,7.4l-0.7,1.6c-1,2.4-2,4.7-3,7.1c-1.2,2.9-2.4,5.8-3.6,8.7l-3.1,7.2c-0.1,0.3-0.3,0.5-0.4,0.8
		c-0.1,0.3-0.2,0.6-0.3,1.1c-0.2,1.2,0.2,1.9,0.6,2.3c0.3,0.4,1,0.9,2.1,0.9c0.1,0,0.3,0,0.3,0c0.7,0,1.4-0.3,1.9-0.9
		c0.3-0.3,0.5-0.7,0.7-1.2l4.1-9.8c1.2-2.8,2.3-5.6,3.4-8.4c1-2.3,2-4.6,2.9-6.9c0.9-2.2,1.9-4.4,3.1-6.5c0.9-1.7,2.2-3.5,3.2-5
		c1-1.5,2.1-3.1,3.2-4.6c1.3-1.5,2.7-3,4.2-4.5c0.3-0.3,0.5-0.5,0.8-0.7l0,0c0,0,8.2-5.9,6.7,4.1c-0.1,0.5-0.3,0.9-0.4,1.4
		c-0.5,1.3-1,2.7-1.6,4c-0.6,1.5-1.2,2.9-1.8,4.4c-0.6,1.4-1.2,2.9-1.9,4.3c-1.1,2.5-2.3,5-3.3,7.6c-1.1,2.6-2.1,5.2-3,7.8
		c-0.3,0.9-0.6,1.8-0.8,2.7c-0.3,1-0.5,1.9-0.6,2.7c-0.2,0.7-0.2,1.4-0.2,2.2c0,0.8,0.2,1.6,0.5,2.3c0.5,1.3,1.5,2.3,2.8,2.9
		c1.2,0.5,2.3,0.7,3.7,0.5c1.4-0.2,2.7-0.7,3.9-1.5c1-0.7,1.9-1.4,2.8-2.2c1-0.8,1.9-1.7,2.8-2.6c0.1,0.5,0.3,1.1,0.5,1.6
		c0.6,1.2,1.4,2.1,2.4,2.8c1,0.7,2.1,1.1,3.3,1.2c0.4,0.1,0.9,0.1,1.3,0.1c1.9,0,3.7-0.5,5.4-1.5c1.9-1.1,3.6-2.2,5.2-3.6
		c0.4-0.4,0.8-0.7,1.1-1.1c0,0,0,0,0,0l-0.9,2.2c-0.1,0.3-0.3,0.6-0.4,1c-0.4,1-0.3,2.1,0.4,2.9c0.6,0.7,1.4,1.1,2.2,1.1
		c0.1,0,0.5,0,0.6-0.1c1-0.2,1.8-0.9,2-1.8l0.2-0.6c0.6-1.3,1.2-2.6,1.7-3.9c0.5-1.3,1.1-2.6,1.6-3.9c1.4-3.5,2.9-7,4.3-10.5
		c1.4-3.5,3-6.9,4.7-10.1c1.3-2.4,2.6-4.7,4-6.8c1.4-2.2,3-4.3,4.6-6.3c1.2-1.3,2.6-2.7,4.1-4c0.2-0.1,0.3-0.2,0.5-0.4
		c1.6-1.1,6.7-4,6.7,4c-0.1,0.4-0.1,0.7-0.2,1.1c-0.4,2.5-1.2,5-2.2,7.2c-1.1,2.4-2.2,4.9-3.2,7.4l-0.7,1.6c-1,2.4-2,4.7-3,7.1
		c-1.2,2.9-2.4,5.8-3.6,8.7l-3.1,7.2c-0.1,0.3-0.3,0.5-0.4,0.8c-0.1,0.3-0.2,0.6-0.3,1.1c-0.2,1.2,0.2,1.9,0.6,2.3
		c0.3,0.4,1,0.9,2.1,0.9c0.1,0,0.3,0,0.3,0c0.7,0,1.4-0.3,1.9-0.9c0.3-0.3,0.5-0.7,0.7-1.2l4.2-9.8c1.2-2.8,2.3-5.6,3.4-8.4
		c1-2.3,2-4.6,2.9-6.9c0.9-2.2,1.9-4.4,3.1-6.5c0.9-1.7,2.2-3.5,3.2-5c1-1.5,2.1-3.1,3.2-4.6c1.3-1.5,2.7-3,4.2-4.5
		c0.3-0.3,0.5-0.5,0.8-0.7l0,0c0,0,8.2-5.9,6.7,4.1c-0.1,0.5-0.3,0.9-0.4,1.4c-0.5,1.3-1,2.7-1.6,4c-0.6,1.5-1.2,2.9-1.8,4.4
		c-0.6,1.4-1.2,2.9-1.9,4.3c-1.1,2.5-2.2,5-3.3,7.6c-1.1,2.6-2.1,5.2-3,7.8c-0.3,0.9-0.6,1.8-0.8,2.7c-0.3,1-0.5,1.9-0.6,2.7
		c-0.2,0.7-0.2,1.4-0.2,2.2c0,0.8,0.2,1.6,0.5,2.3c0.5,1.3,1.5,2.3,2.8,2.9c1.2,0.5,2.3,0.7,3.7,0.5c1.4-0.2,2.7-0.7,3.9-1.5
		c1-0.7,1.9-1.4,2.8-2.2c1-0.8,1.9-1.7,2.8-2.6c0.1,0.5,0.3,1.1,0.5,1.6c0.6,1.2,1.4,2.1,2.4,2.8c1,0.7,2.1,1.1,3.3,1.2
		c0.4,0.1,0.9,0.1,1.3,0.1c1.9,0,3.7-0.5,5.4-1.5c1.9-1.1,3.6-2.2,5.2-3.6c0.3-0.3,0.5-0.5,0.8-0.8l-0.8,1.8c-0.1,0.3-0.3,0.6-0.4,1
		c-0.4,1-0.3,2.1,0.4,2.9c0.6,0.7,1.4,1.1,2.2,1.1c0.1,0,0.5,0,0.6-0.1c1-0.2,1.7-0.9,2-1.8l0.2-0.6c0.6-1.3,1.2-2.6,1.7-3.9
		c0.5-1.3,1.1-2.6,1.6-3.9c1.4-3.5,2.9-7,4.3-10.5c1.4-3.5,3-6.9,4.7-10.1c1.3-2.4,2.6-4.7,4-6.8c1.4-2.2,3-4.3,4.6-6.3
		c1.2-1.3,2.6-2.7,4.1-4c0.2-0.1,0.3-0.2,0.5-0.4c1.6-1.1,6.7-4,6.7,4c-0.1,0.4-0.1,0.7-0.2,1.1c-0.5,2.5-1.2,5-2.2,7.2
		c-1.1,2.4-2.2,4.9-3.2,7.4l-0.7,1.6c-1,2.4-2,4.7-3,7.1c-1.2,2.9-2.4,5.8-3.6,8.7l-3.1,7.2c-0.1,0.3-0.3,0.5-0.4,0.8
		c-0.1,0.3-0.2,0.6-0.3,1.1c-0.2,1.2,0.2,1.9,0.6,2.3c0.3,0.4,1,0.9,2.1,0.9c0.1,0,0.3,0,0.3,0c0.7,0,1.4-0.3,1.9-0.9
		c0.3-0.3,0.5-0.7,0.7-1.2l4.1-9.8c1.2-2.8,2.3-5.6,3.4-8.4c1-2.3,2-4.6,2.9-6.9c0.9-2.2,1.9-4.4,3.1-6.5c0.9-1.7,2.2-3.5,3.2-5
		c1-1.5,2.1-3.1,3.2-4.6c1.3-1.5,2.7-3,4.2-4.5c0.3-0.3,0.5-0.5,0.8-0.7l0,0c0,0,8.2-5.9,6.7,4.1c-0.1,0.5-0.3,0.9-0.4,1.4
		c-0.5,1.3-1,2.7-1.6,4c-0.6,1.5-1.2,2.9-1.8,4.4c-0.6,1.4-1.2,2.9-1.9,4.3c-1.1,2.5-2.2,5-3.3,7.6c-1.1,2.6-2.1,5.2-3,7.8
		c-0.3,0.9-0.6,1.8-0.8,2.7c-0.3,1-0.5,1.9-0.6,2.7c-0.2,0.7-0.2,1.4-0.2,2.2c0,0.8,0.2,1.6,0.5,2.3c0.5,1.3,1.5,2.3,2.8,2.9
		c1.2,0.5,2.3,0.7,3.7,0.5c1.4-0.2,2.7-0.7,3.9-1.5c0.1-0.1,0.2-0.2,0.3-0.2l0,0.2c1-0.7,1.9-1.4,2.8-2.2c1.1-0.9,2.2-1.9,3.2-3
		l2.5-2.7c-0.1,0.4-0.3,0.8-0.4,1.3c-0.3,1.2-0.4,2.4-0.2,3.6c0.1,0.6,0.2,1.3,0.5,1.8c0.3,0.9,1,1.6,1.9,2c0.6,0.3,1.2,0.4,1.8,0.4
		c0.5,0,1-0.1,1.5-0.3c0.8-0.3,1.5-0.6,2.2-1c0.9-0.5,1.7-1.1,2.4-1.7c0.7-0.6,1.4-1.2,2.1-1.9c0.9-0.9,1.7-1.8,2.5-2.7l3.9-4.4
		c0.1-0.1,0.1-0.2,0.2-0.3c0.2-0.4,0.4-0.8,0.6-1.1C268.9,51.8,268.9,50.6,267.7,49.6z M175.4,47.9c0,0,3.5-6.1,7.2-4.9
		c0,0,1.7,0.8-2.2,3.4C180.3,46.4,174.9,49.9,175.4,47.9z M96.1,47.9c0,0,3.5-6.1,7.2-4.9c0,0,1.7,0.8-2.2,3.4
		C101.1,46.4,95.6,49.9,96.1,47.9z"/>
</g>
<g>
	<g>
		<path d="M143.5,73.1l-1.1-1.9c-0.1-0.1-0.2-0.1-0.3-0.1H141c-0.1,0-0.2,0.1-0.3,0.2c-0.1,0.1,0,0.2,0,0.3l1.5,1.9
			c0.1,0.1,0.1,0.1,0.2,0.1h0.7c0.1,0,0.2-0.1,0.3-0.2C143.6,73.3,143.6,73.2,143.5,73.1z"/>
		<g>
			<path d="M45,77.5c-0.4-0.8-1-1.5-1.8-1.9c-0.8-0.4-1.7-0.7-2.8-0.7c-0.8,0-1.5,0.1-2.2,0.4c-0.6,0.2-1.2,0.6-1.6,1.1
				c-0.4,0.5-0.8,1.1-1,1.7c-0.2,0.7-0.4,1.4-0.4,2.2c0,0.8,0.1,1.5,0.3,2.2c0.2,0.7,0.6,1.3,1,1.8c0.4,0.5,1,0.9,1.6,1.1
				c0.7,0.3,1.4,0.4,2.2,0.4c0.8,0,1.6-0.1,2.2-0.4c0.6-0.3,1.2-0.6,1.6-1.1c0.4-0.5,0.8-1.1,1-1.7c0.2-0.7,0.3-1.4,0.3-2.2
				C45.6,79.2,45.4,78.3,45,77.5z M42,83.7C42,83.7,41.9,83.7,42,83.7c-0.5,0.3-1,0.5-1.6,0.5c-0.1,0-0.2,0-0.2,0c0,0-0.1,0-0.1,0
				c-0.3,0-0.6-0.1-0.8-0.2c-0.1,0-0.1-0.1-0.2-0.1c-0.1,0-0.2-0.1-0.3-0.2c0,0,0,0-0.1,0c-1-0.7-1.6-1.9-1.6-3.2
				c0-2.1,1.5-3.8,3.3-3.8c1.8,0,3.3,1.7,3.3,3.8C43.7,81.8,43,83,42,83.7z"/>
			<path d="M33.5,81.7c-0.2-0.2-0.4-0.3-0.7-0.3c-0.1,0-0.2,0-0.3,0c-0.2,0-0.3,0.1-0.4,0.2c-0.1,0.2-0.2,0.4-0.3,0.7
				c-0.2,0.6-0.5,1-1,1.3c-0.4,0.3-0.9,0.5-1.6,0.5c-0.3,0-0.5,0-0.7-0.1c-0.1,0-0.1,0-0.2-0.1c0,0,0,0,0,0
				c-0.2-0.1-0.4-0.2-0.6-0.3c-1-0.6-1.8-1.9-1.8-3.3c0-1.8,1.2-3.4,2.7-3.7c0,0,0.1,0,0.1,0c0.2,0,0.4-0.1,0.5-0.1c0,0,0,0,0,0
				c0.3,0,0.7,0.1,1,0.2c0,0,0,0,0.1,0c0,0,0.1,0,0.1,0c0.1,0,0.2,0.1,0.3,0.2c0.4,0.3,0.7,0.7,1,1.2c0.2,0.3,0.3,0.5,0.5,0.7
				c0.1,0.1,0.1,0.1,0.2,0.1c0.1,0,0.2,0.1,0.4,0.1c0.2,0,0.5-0.1,0.6-0.3c0.2-0.2,0.3-0.4,0.3-0.6c0-0.5-0.2-0.9-0.5-1.4
				c-0.4-0.5-0.9-0.9-1.5-1.3c-0.7-0.3-1.4-0.5-2.3-0.5c-0.7,0-1.4,0.1-2,0.4c-0.6,0.2-1.2,0.6-1.6,1.1c-0.5,0.5-0.8,1.1-1.1,1.7
				c-0.2,0.7-0.4,1.4-0.4,2.3c0,0.5,0,1,0.2,1.5c0.1,0.5,0.2,0.9,0.4,1.3c0.2,0.4,0.4,0.8,0.7,1.1c0.3,0.4,0.7,0.7,1,0.9
				c0.4,0.2,0.8,0.4,1.2,0.5c0.5,0.1,1,0.2,1.5,0.2c0.7,0,1.4-0.1,1.9-0.4c0.5-0.2,1-0.5,1.4-0.9c0.4-0.4,0.6-0.8,0.8-1.1
				c0.2-0.4,0.2-0.8,0.2-1.1C33.8,82.1,33.7,81.8,33.5,81.7z"/>
			<g>
				<path d="M83.9,81.7c-0.2-0.2-0.4-0.3-0.7-0.3c-0.1,0-0.2,0-0.3,0c-0.2,0-0.3,0.1-0.4,0.2c-0.1,0.2-0.2,0.4-0.3,0.7
					c-0.2,0.6-0.5,1-1,1.3c-0.4,0.3-0.9,0.5-1.6,0.5c-0.3,0-0.5,0-0.7-0.1c-0.1,0-0.1,0-0.2-0.1c0,0,0,0,0,0
					c-0.2-0.1-0.4-0.2-0.6-0.3c-1-0.6-1.8-1.9-1.8-3.3c0-1.8,1.2-3.4,2.7-3.7c0,0,0.1,0,0.1,0c0.2,0,0.4-0.1,0.5-0.1c0,0,0,0,0,0
					c0.3,0,0.7,0.1,1,0.2c0,0,0,0,0.1,0c0,0,0.1,0,0.1,0c0.1,0,0.2,0.1,0.3,0.2c0.4,0.3,0.7,0.7,1,1.2c0.2,0.3,0.3,0.5,0.5,0.7
					c0.1,0.1,0.1,0.1,0.2,0.1c0.1,0,0.2,0.1,0.4,0.1c0.2,0,0.5-0.1,0.6-0.3c0.2-0.2,0.3-0.4,0.3-0.6c0-0.5-0.2-0.9-0.5-1.4
					c-0.4-0.5-0.9-0.9-1.5-1.3c-0.7-0.3-1.4-0.5-2.3-0.5c-0.7,0-1.4,0.1-2,0.4c-0.6,0.2-1.2,0.6-1.6,1.1c-0.5,0.5-0.8,1.1-1.1,1.7
					c-0.2,0.7-0.4,1.4-0.4,2.3c0,0.5,0.1,1,0.2,1.5c0.1,0.5,0.2,0.9,0.4,1.3c0.2,0.4,0.4,0.8,0.7,1.1c0.3,0.4,0.7,0.7,1,0.9
					c0.4,0.2,0.8,0.4,1.2,0.5c0.5,0.1,1,0.2,1.5,0.2c0.7,0,1.4-0.1,1.9-0.4c0.6-0.2,1-0.5,1.4-0.9c0.4-0.4,0.6-0.8,0.8-1.1
					c0.2-0.4,0.2-0.8,0.2-1.1C84.2,82.1,84.1,81.8,83.9,81.7z"/>
				<path d="M107.8,81.7c-0.2-0.2-0.4-0.3-0.7-0.3c-0.1,0-0.2,0-0.3,0c-0.2,0-0.3,0.1-0.4,0.2c-0.1,0.2-0.3,0.4-0.3,0.7
					c-0.2,0.6-0.5,1-1,1.3c-0.4,0.3-0.9,0.5-1.6,0.5c-0.3,0-0.5,0-0.7-0.1c-0.1,0-0.1,0-0.2-0.1c0,0,0,0,0,0
					c-0.2-0.1-0.4-0.2-0.6-0.3c-1-0.6-1.8-1.9-1.8-3.3c0-1.8,1.2-3.4,2.7-3.7c0,0,0.1,0,0.1,0c0.2,0,0.4-0.1,0.5-0.1c0,0,0,0,0,0
					c0.3,0,0.7,0.1,1,0.2c0,0,0,0,0.1,0c0,0,0.1,0,0.1,0c0.1,0,0.2,0.1,0.3,0.2c0.4,0.3,0.7,0.7,1,1.2c0.2,0.3,0.3,0.5,0.5,0.7
					c0.1,0.1,0.1,0.1,0.2,0.1c0.1,0,0.2,0.1,0.4,0.1c0.2,0,0.4-0.1,0.6-0.3c0.2-0.2,0.3-0.4,0.3-0.6c0-0.5-0.2-0.9-0.5-1.4
					c-0.4-0.5-0.9-0.9-1.5-1.3c-0.7-0.3-1.4-0.5-2.3-0.5c-0.7,0-1.4,0.1-2,0.4c-0.6,0.2-1.2,0.6-1.6,1.1c-0.5,0.5-0.8,1.1-1.1,1.7
					c-0.2,0.7-0.4,1.4-0.4,2.3c0,0.5,0.1,1,0.1,1.5c0.1,0.5,0.3,0.9,0.4,1.3c0.2,0.4,0.4,0.8,0.7,1.1c0.3,0.4,0.7,0.7,1,0.9
					c0.4,0.2,0.8,0.4,1.2,0.5c0.5,0.1,1,0.2,1.5,0.2c0.7,0,1.4-0.1,1.9-0.4c0.6-0.2,1-0.5,1.4-0.9c0.4-0.4,0.6-0.8,0.8-1.1
					c0.2-0.4,0.2-0.8,0.2-1.1C108.1,82.1,108,81.8,107.8,81.7z"/>
			</g>
			<path d="M73.2,84.2C73,84,72.7,84,72.4,84h-4.1c-0.7-0.1-0.8-0.5-0.9-0.8V81h4.4c0.3,0,0.6-0.1,0.7-0.2c0.2-0.2,0.2-0.3,0.2-0.6
				c0-0.2-0.1-0.4-0.2-0.6c-0.2-0.1-0.4-0.2-0.7-0.2h-4.4v-1.5h0c0-1,0.7-1.1,0.9-1.1h0.1h3.8c0.3,0,0.6-0.1,0.8-0.2
				c0.2-0.1,0.3-0.4,0.3-0.6c0-0.2-0.1-0.4-0.3-0.6c-0.2-0.2-0.4-0.2-0.8-0.2h-3.8h-1.9c-0.3,0-0.6,0-0.8,0.1
				c-0.1,0-0.1,0.1-0.2,0.1c-0.1,0.1-0.2,0.2-0.2,0.3c-0.1,0.2-0.1,0.4-0.1,0.8v6.5v1.4c0,0.5,0.1,0.8,0.3,1c0.2,0.2,0.5,0.3,1,0.3
				h1.9h3.9c0.3,0,0.6-0.1,0.8-0.2c0.2-0.2,0.3-0.4,0.3-0.6C73.4,84.6,73.3,84.4,73.2,84.2z"/>
			<path d="M146.3,84.2c-0.2-0.2-0.4-0.2-0.8-0.2h-4.1c-0.7-0.1-0.8-0.5-0.9-0.8V81h4.4c0.3,0,0.6-0.1,0.7-0.2
				c0.2-0.2,0.2-0.3,0.2-0.6c0-0.2-0.1-0.4-0.2-0.6c-0.2-0.1-0.4-0.2-0.7-0.2h-4.4v-1.5h0c0-1,0.7-1.1,0.9-1.1h0.1h3.8
				c0.3,0,0.6-0.1,0.8-0.2c0.2-0.1,0.2-0.4,0.2-0.6c0-0.2-0.1-0.4-0.2-0.6c-0.2-0.2-0.4-0.2-0.8-0.2h-3.8h-1.9c-0.3,0-0.6,0-0.8,0.1
				c-0.1,0-0.1,0.1-0.2,0.1c-0.1,0.1-0.2,0.2-0.2,0.3c-0.1,0.2-0.1,0.4-0.1,0.8v6.5v1.4c0,0.5,0.1,0.8,0.3,1c0.2,0.2,0.5,0.3,1,0.3
				h1.9h3.9c0.3,0,0.6-0.1,0.8-0.2c0.2-0.2,0.3-0.4,0.3-0.6C146.6,84.6,146.5,84.4,146.3,84.2z"/>
			<path d="M93.8,75.3c-0.2-0.2-0.5-0.2-0.8-0.2h-1.3h-1.4h-1.5h-1.4h-1.3c-0.4,0-0.6,0.1-0.8,0.2C85.1,75.5,85,75.7,85,76
				c0,0.3,0.1,0.5,0.3,0.6c0.2,0.2,0.5,0.2,0.8,0.2h1.3v0c0,0,0,0,0,0h0.1c0.3,0,1,0.1,1,1.1h0v6.6c0,0.4,0.1,0.8,0.3,1
				c0.2,0.2,0.5,0.3,0.8,0.3c0.3,0,0.6-0.1,0.8-0.3c0.2-0.2,0.3-0.5,0.3-1v-6.7c0-0.9,0.7-1,1-1h0.1c0,0,0,0,0,0v0h1.3
				c0.4,0,0.6-0.1,0.8-0.2c0.2-0.2,0.3-0.4,0.3-0.6C94,75.7,93.9,75.5,93.8,75.3z"/>
			<path d="M123.5,76.7h3.3c0.3,0,0.6-0.1,0.8-0.2c0.2-0.1,0.3-0.4,0.3-0.6c0-0.2-0.1-0.4-0.3-0.6c-0.2-0.2-0.4-0.2-0.8-0.2h-3.2
				h-1.9c-0.3,0-0.6,0-0.7,0.1c-0.1,0-0.2,0.1-0.2,0.2c-0.1,0.1-0.2,0.2-0.2,0.3c-0.1,0.2-0.1,0.4-0.1,0.8v8.1c0,0.4,0.1,0.8,0.3,1
				c0.2,0.2,0.5,0.3,0.8,0.3c0.3,0,0.6-0.1,0.8-0.3c0.2-0.2,0.3-0.5,0.3-1v-2.5c0-1.1,1.1-1,1.1-1v0h2.5c0.3,0,0.6-0.1,0.7-0.2
				c0.2-0.1,0.2-0.3,0.2-0.6c0-0.3-0.1-0.4-0.2-0.6c-0.2-0.2-0.4-0.2-0.7-0.2h-2.7c-0.3,0-0.8-0.2-0.8-1v-0.7
				C122.7,76.9,123.3,76.8,123.5,76.7z"/>
			<path d="M132.5,76.7h3.3c0.3,0,0.6-0.1,0.8-0.2c0.2-0.1,0.3-0.4,0.3-0.6c0-0.2-0.1-0.4-0.3-0.6c-0.2-0.2-0.4-0.2-0.8-0.2h-3.2
				h-1.9c-0.3,0-0.6,0-0.7,0.1c-0.1,0-0.2,0.1-0.2,0.2c-0.1,0.1-0.2,0.2-0.2,0.3c-0.1,0.2-0.1,0.4-0.1,0.8v8.1c0,0.4,0.1,0.8,0.3,1
				c0.2,0.2,0.5,0.3,0.8,0.3c0.3,0,0.6-0.1,0.8-0.3c0.2-0.2,0.3-0.5,0.3-1v-2.5c0-1.1,1.1-1,1.1-1v0h2.5c0.3,0,0.6-0.1,0.7-0.2
				c0.2-0.1,0.2-0.3,0.2-0.6c0-0.3-0.1-0.4-0.2-0.6c-0.2-0.2-0.4-0.2-0.7-0.2h-2.7c-0.3,0-0.8-0.2-0.9-1v-0.7
				C131.6,76.9,132.2,76.8,132.5,76.7z"/>
			<path d="M54.7,84.2c-0.2-0.2-0.5-0.3-0.8-0.3h-3.3c-0.9,0-1-0.6-1.1-0.9v-6.8c0-0.4-0.1-0.8-0.3-1c-0.2-0.2-0.5-0.3-0.8-0.3
				s-0.6,0.1-0.8,0.3c-0.2,0.2-0.3,0.5-0.3,1v6.6v1.5c0,0.5,0.1,0.8,0.3,1c0.2,0.2,0.5,0.3,1,0.3h1.9h3.3c0.4,0,0.6-0.1,0.8-0.2
				c0.2-0.2,0.3-0.4,0.3-0.6C54.9,84.5,54.8,84.3,54.7,84.2z"/>
			<path d="M63.5,84.2c-0.2-0.2-0.5-0.3-0.8-0.3h-3.3c-0.9,0-1-0.6-1.1-0.9v-6.8c0-0.4-0.1-0.8-0.3-1c-0.2-0.2-0.5-0.3-0.8-0.3
				c-0.3,0-0.6,0.1-0.8,0.3c-0.2,0.2-0.3,0.5-0.3,1v6.6v1.5c0,0.5,0.1,0.8,0.3,1c0.2,0.2,0.5,0.3,1,0.3h1.9h3.3
				c0.3,0,0.6-0.1,0.8-0.2c0.2-0.2,0.3-0.4,0.3-0.6C63.8,84.5,63.7,84.3,63.5,84.2z"/>
			<path d="M118.7,83.7l-2.8-6.8c-0.1-0.3-0.2-0.6-0.3-0.8c-0.1-0.2-0.2-0.4-0.3-0.6c-0.1-0.2-0.3-0.3-0.5-0.4
				c-0.2-0.1-0.5-0.2-0.7-0.2c-0.3,0-0.5,0.1-0.7,0.2c-0.2,0.1-0.4,0.3-0.5,0.4c-0.1,0.2-0.2,0.4-0.4,0.7c-0.1,0.3-0.2,0.5-0.3,0.7
				l-2.7,6.9c-0.1,0.3-0.2,0.5-0.2,0.6c0,0.2-0.1,0.3-0.1,0.5c0,0.3,0.1,0.5,0.3,0.7c0.2,0.2,0.4,0.3,0.7,0.3c0.3,0,0.5-0.1,0.7-0.3
				c0.1-0.2,0.3-0.5,0.5-1.1l0.3-0.9c0.1-0.2,0.3-0.5,0.7-0.5h3.3c0.4,0,0.6,0.3,0.7,0.5l0.3,0.8c0.1,0.2,0.1,0.4,0.2,0.6
				c0.1,0.2,0.2,0.4,0.3,0.5c0.1,0.1,0.2,0.2,0.3,0.2c0.1,0.1,0.3,0.1,0.4,0.1c0.3,0,0.5-0.1,0.7-0.3c0.2-0.2,0.3-0.4,0.3-0.7
				C119,84.6,118.9,84.2,118.7,83.7z M113.7,78.1C113.7,78.1,113.7,78.1,113.7,78.1c0.1-0.2,0.1-0.4,0.1-0.4c0,0,0.1-0.4,0.4,0
				c0,0,0,0,0,0l0.3,0.7l0.9,2.5c0,0,0,0.6-0.6,0.6h-1.6c-0.6,0-0.6-0.6-0.6-0.6h0L113.7,78.1z"/>
		</g>
	</g>
	<g>
		<path d="M179.8,79.7c-0.3-0.6-0.7-1.1-1.3-1.4c-0.6-0.3-1.2-0.5-2-0.5c-0.6,0-1.1,0.1-1.6,0.3c-0.5,0.2-0.8,0.4-1.2,0.8
			c-0.3,0.3-0.6,0.8-0.7,1.2c-0.2,0.5-0.3,1-0.3,1.6c0,0.6,0.1,1.1,0.2,1.6c0.2,0.5,0.4,0.9,0.7,1.3c0.3,0.4,0.7,0.6,1.2,0.8
			c0.5,0.2,1,0.3,1.6,0.3c0.6,0,1.1-0.1,1.6-0.3c0.5-0.2,0.9-0.5,1.2-0.8c0.3-0.4,0.6-0.8,0.7-1.3c0.2-0.5,0.2-1,0.2-1.6
			C180.2,81,180.1,80.3,179.8,79.7z M177.6,84.2C177.6,84.2,177.6,84.2,177.6,84.2c-0.4,0.2-0.7,0.3-1.1,0.3c-0.1,0-0.1,0-0.2,0
			c0,0-0.1,0-0.1,0c-0.2,0-0.4-0.1-0.6-0.1c0,0-0.1-0.1-0.1-0.1c-0.1,0-0.1-0.1-0.2-0.1c0,0,0,0,0,0c-0.7-0.5-1.2-1.3-1.2-2.3
			c0-1.5,1.1-2.7,2.4-2.7c1.3,0,2.4,1.2,2.4,2.7C178.9,82.8,178.4,83.7,177.6,84.2z"/>
		<path d="M252.7,79.7c-0.3-0.6-0.7-1.1-1.3-1.4c-0.6-0.3-1.2-0.5-2-0.5c-0.6,0-1.1,0.1-1.6,0.3c-0.5,0.2-0.8,0.4-1.2,0.8
			c-0.3,0.3-0.6,0.8-0.7,1.2c-0.2,0.5-0.3,1-0.3,1.6c0,0.6,0.1,1.1,0.2,1.6c0.2,0.5,0.4,0.9,0.7,1.3c0.3,0.4,0.7,0.6,1.2,0.8
			c0.5,0.2,1,0.3,1.6,0.3c0.6,0,1.1-0.1,1.6-0.3c0.5-0.2,0.9-0.5,1.2-0.8c0.3-0.4,0.6-0.8,0.7-1.3c0.2-0.5,0.2-1,0.2-1.6
			C253.1,81,253,80.3,252.7,79.7z M250.5,84.2C250.5,84.2,250.5,84.2,250.5,84.2c-0.4,0.2-0.7,0.3-1.1,0.3c-0.1,0-0.1,0-0.2,0
			c0,0-0.1,0-0.1,0c-0.2,0-0.4-0.1-0.6-0.1c-0.1,0-0.1-0.1-0.1-0.1c-0.1,0-0.1-0.1-0.2-0.1c0,0,0,0-0.1,0c-0.7-0.5-1.2-1.3-1.2-2.3
			c0-1.5,1.1-2.7,2.4-2.7c1.3,0,2.4,1.2,2.4,2.7C251.8,82.8,251.3,83.7,250.5,84.2z"/>
		<path d="M156,79.1h2.4c0.2,0,0.4-0.1,0.5-0.2c0.1-0.1,0.2-0.3,0.2-0.4c0-0.2-0.1-0.3-0.2-0.4c-0.1-0.1-0.3-0.2-0.5-0.2h-2.3h-1.4
			c-0.2,0-0.4,0-0.5,0.1c-0.1,0-0.1,0.1-0.2,0.1c-0.1,0.1-0.1,0.1-0.1,0.2c-0.1,0.1-0.1,0.3-0.1,0.5v5.9c0,0.3,0.1,0.6,0.2,0.7
			c0.1,0.2,0.3,0.2,0.6,0.2c0.2,0,0.4-0.1,0.6-0.2c0.1-0.2,0.2-0.4,0.2-0.7V83c0-0.8,0.8-0.7,0.8-0.7v0h1.8c0.2,0,0.4-0.1,0.5-0.2
			c0.1-0.1,0.2-0.2,0.2-0.4c0-0.2-0.1-0.3-0.2-0.4c-0.1-0.1-0.3-0.2-0.5-0.2H156c-0.2,0-0.6-0.1-0.6-0.7v-0.5
			C155.4,79.3,155.8,79.2,156,79.1z"/>
		<path d="M221.1,84.7c-0.1-0.1-0.3-0.2-0.6-0.2h-2.4c-0.6,0-0.7-0.4-0.8-0.6v-4.9c0-0.3-0.1-0.6-0.2-0.7c-0.1-0.2-0.3-0.2-0.6-0.2
			c-0.2,0-0.4,0.1-0.6,0.2c-0.1,0.2-0.2,0.4-0.2,0.7v4.8v1.1c0,0.3,0.1,0.6,0.2,0.7c0.2,0.2,0.4,0.2,0.7,0.2h1.4h2.4
			c0.3,0,0.4-0.1,0.6-0.2c0.1-0.1,0.2-0.3,0.2-0.5C221.3,84.9,221.2,84.8,221.1,84.7z"/>
		<path d="M231.3,84.2l-2-5c-0.1-0.2-0.2-0.4-0.2-0.6c-0.1-0.1-0.1-0.3-0.2-0.4c-0.1-0.1-0.2-0.2-0.4-0.3c-0.1-0.1-0.3-0.1-0.5-0.1
			c-0.2,0-0.4,0-0.5,0.1c-0.1,0.1-0.3,0.2-0.4,0.3c-0.1,0.1-0.2,0.3-0.3,0.5c-0.1,0.2-0.1,0.4-0.2,0.5l-2,5
			c-0.1,0.2-0.1,0.4-0.2,0.5c0,0.1-0.1,0.2-0.1,0.3c0,0.2,0.1,0.3,0.2,0.5c0.2,0.1,0.3,0.2,0.5,0.2c0.2,0,0.4-0.1,0.5-0.2
			c0.1-0.1,0.2-0.4,0.4-0.8l0.2-0.6c0.1-0.2,0.2-0.4,0.5-0.4h2.4c0.3,0,0.4,0.2,0.5,0.4l0.2,0.6c0,0.1,0.1,0.3,0.2,0.4
			c0.1,0.2,0.1,0.3,0.2,0.3c0.1,0.1,0.1,0.1,0.2,0.2c0.1,0,0.2,0.1,0.3,0.1c0.2,0,0.4-0.1,0.5-0.2c0.2-0.2,0.2-0.3,0.2-0.5
			C231.5,84.9,231.4,84.6,231.3,84.2z M227.7,80.2L227.7,80.2c0.1-0.2,0.1-0.3,0.1-0.3c0,0,0.1-0.3,0.3,0l0,0l0.2,0.5l0.7,1.8
			c0,0,0,0.4-0.4,0.5h-1.1c-0.5,0-0.4-0.5-0.4-0.5h0L227.7,80.2z"/>
		<path d="M169,84.6c-0.1-0.3-0.3-0.6-0.5-0.9c-0.2-0.3-0.4-0.6-0.7-0.9c-0.3-0.3-0.5-0.5-0.8-0.6c0.7-0.1,1.1-0.4,1.5-0.7
			c0.3-0.3,0.5-0.8,0.5-1.4c0-0.3,0-0.5-0.1-0.8c-0.1-0.2-0.2-0.5-0.4-0.7c-0.2-0.2-0.4-0.3-0.6-0.4c-0.2-0.1-0.4-0.2-0.7-0.2
			c-0.2,0-0.5,0-0.9,0h-2.5c-0.3,0-0.6,0.1-0.7,0.2c-0.2,0.1-0.2,0.4-0.2,0.7v5.9c0,0.3,0.1,0.6,0.2,0.7c0.1,0.2,0.3,0.2,0.6,0.2
			c0.2,0,0.4-0.1,0.6-0.2c0.1-0.2,0.2-0.4,0.2-0.7v-1.7c0-0.6,0.4-0.7,0.6-0.8c0.2,0,0.5,0,0.6,0.1c0.2,0.1,0.4,0.2,0.5,0.4
			c0.2,0.2,0.4,0.5,0.6,0.9l0.6,1c0.1,0.2,0.3,0.4,0.4,0.6c0.1,0.1,0.2,0.2,0.3,0.3c0.1,0.1,0.3,0.1,0.4,0.1c0.1,0,0.3,0,0.4-0.1
			c0.1-0.1,0.2-0.1,0.3-0.2c0.1-0.1,0.1-0.2,0.1-0.3C169.2,85,169.1,84.9,169,84.6z M166.7,81.1c-0.3,0.1-0.6,0.1-0.9,0.1h-1.4v-1.3
			c0-0.7,0.5-0.8,0.7-0.8h0.1l0,0v0h0.7c0.5,0,0.9,0,1.1,0.1c0.2,0.1,0.3,0.2,0.5,0.4c0.1,0.2,0.2,0.4,0.2,0.6
			c0,0.3-0.1,0.5-0.2,0.6C167.2,81,167,81.1,166.7,81.1z"/>
		<path d="M210,84.8v-6c0-0.3,0.1-0.6,0.2-0.7c0.1-0.2,0.3-0.2,0.6-0.2c0.2,0,0.4,0.1,0.6,0.2c0.1,0.2,0.2,0.4,0.2,0.7v6
			c0,0.3-0.1,0.6-0.2,0.7c-0.1,0.2-0.3,0.2-0.6,0.2c-0.2,0-0.4-0.1-0.6-0.2C210,85.4,210,85.1,210,84.8z"/>
		<path d="M241.5,78c-0.1-0.1-0.3-0.2-0.5-0.2c-0.2,0-0.4,0.1-0.5,0.2c-0.1,0.1-0.2,0.4-0.2,0.7v4.1c0,0.1-0.1,0.2-0.3,0.1l0,0
			l-2.7-4.1c-0.1-0.1-0.2-0.3-0.2-0.4c-0.1-0.1-0.2-0.2-0.2-0.3c-0.1-0.1-0.2-0.1-0.3-0.2c-0.1,0-0.2-0.1-0.4-0.1
			c-0.2,0-0.3,0-0.5,0.1c-0.2,0.1-0.3,0.2-0.3,0.4c-0.1,0.1-0.1,0.3-0.1,0.6v5.9c0,0.3,0.1,0.5,0.2,0.7c0.1,0.2,0.3,0.2,0.5,0.2
			c0.2,0,0.4-0.1,0.5-0.2c0.1-0.1,0.2-0.4,0.2-0.7v-4c0-0.1,0.1-0.2,0.3,0h0l2.6,4c0.1,0.1,0.2,0.2,0.3,0.4c0.1,0.1,0.2,0.2,0.3,0.3
			c0.1,0.1,0.2,0.2,0.3,0.2c0.1,0,0.2,0.1,0.4,0.1c0.6,0,0.8-0.3,0.8-1v-6C241.7,78.4,241.6,78.2,241.5,78z"/>
		<path d="M191.3,78.1c-0.2-0.1-0.4-0.2-0.7-0.2h-0.5c-0.3,0-0.5,0-0.6,0.1c-0.1,0.1-0.2,0.1-0.3,0.3c-0.1,0.1-0.1,0.4-0.2,0.7
			l-1,3.9c-0.1,0.4-0.2,0-0.2,0l-1-3.9c-0.1-0.3-0.2-0.5-0.2-0.7c-0.1-0.1-0.2-0.2-0.3-0.3c-0.1-0.1-0.3-0.1-0.6-0.1h-0.5
			c-0.3,0-0.5,0.1-0.7,0.2c-0.2,0.1-0.3,0.3-0.3,0.7v3.6v2.4c0,0.3,0.1,0.5,0.2,0.7c0.1,0.1,0.3,0.2,0.5,0.2c0.2,0,0.4-0.1,0.5-0.2
			c0.1-0.1,0.2-0.4,0.2-0.7v-2.4v-2c0-0.1,0.1-0.2,0.2,0l0,0l0,0l0.5,2l0.2,1l0.3,1.1c0,0.2,0.1,0.3,0.1,0.5c0,0.1,0.1,0.3,0.2,0.4
			c0.1,0.1,0.2,0.2,0.3,0.3c0.1,0.1,0.3,0.1,0.5,0.1c0.2,0,0.4-0.1,0.6-0.2c0.1-0.1,0.2-0.3,0.3-0.4c0-0.1,0.1-0.2,0.1-0.3
			c0-0.1,0.1-0.2,0.1-0.4l0.5-2l0.5-2c0.1-0.1,0.2,0,0.2,0c0,0,0,0,0,0l0,0c0,0.3,0,0.7,0,1.3v0.7v2.4c0,0,0,0,0,0
			c0,0.3,0.1,0.5,0.2,0.6c0.1,0.1,0.3,0.2,0.5,0.2c0.2,0,0.4-0.1,0.5-0.2c0.1-0.1,0.2-0.4,0.2-0.7v-2.4v-3.6
			C191.6,78.5,191.5,78.2,191.3,78.1z"/>
		<path d="M205.5,78.1c-0.2-0.1-0.4-0.2-0.7-0.2h-0.5c-0.3,0-0.5,0-0.6,0.1c-0.1,0.1-0.2,0.1-0.3,0.3c-0.1,0.1-0.1,0.4-0.2,0.7
			l-1,3.9c-0.1,0.4-0.2,0-0.2,0l-1-3.9c-0.1-0.3-0.2-0.5-0.2-0.7c-0.1-0.1-0.2-0.2-0.3-0.3c-0.1-0.1-0.3-0.1-0.6-0.1h-0.5
			c-0.3,0-0.5,0.1-0.7,0.2c-0.2,0.1-0.3,0.3-0.3,0.7v3.6v2.4c0,0.3,0.1,0.5,0.2,0.7c0.1,0.1,0.3,0.2,0.5,0.2c0.2,0,0.4-0.1,0.5-0.2
			c0.1-0.1,0.2-0.4,0.2-0.7v-2.4v-2c0-0.1,0.1-0.2,0.2,0l0,0l0,0l0.5,2l0.2,1l0.3,1.1c0,0.2,0.1,0.3,0.1,0.5c0,0.1,0.1,0.3,0.2,0.4
			c0.1,0.1,0.2,0.2,0.3,0.3c0.1,0.1,0.3,0.1,0.5,0.1c0.2,0,0.4-0.1,0.6-0.2c0.1-0.1,0.2-0.3,0.3-0.4c0-0.1,0.1-0.2,0.1-0.3
			c0-0.1,0.1-0.2,0.1-0.4l0.5-2l0.5-2c0.1-0.1,0.2,0,0.2,0c0,0,0,0,0,0h0c0,0.3,0,0.7,0,1.3v0.7v2.4c0,0,0,0,0,0
			c0,0.3,0.1,0.5,0.2,0.6c0.1,0.1,0.3,0.2,0.5,0.2c0.2,0,0.4-0.1,0.5-0.2c0.1-0.1,0.2-0.4,0.2-0.7v-2.4v-3.6
			C205.7,78.5,205.6,78.2,205.5,78.1z"/>
	</g>
</g>
</svg>
